<?xml version="1.0" standalone="no"?>
<!DOCTYPE svg PUBLIC "-//W3C//DTD SVG 20010904//EN"
 "http://www.w3.org/TR/2001/REC-SVG-20010904/DTD/svg10.dtd">
<svg version="1.0" xmlns="http://www.w3.org/2000/svg"
 width="516.000000pt" height="516.000000pt" viewBox="0 0 516.000000 516.000000"
 preserveAspectRatio="xMidYMid meet">
<metadata>
Created by potrace 1.11, written by Peter Selinger 2001-2013
</metadata>
<g transform="translate(0.000000,516.000000) scale(0.100000,-0.100000)"
fill="#000000" stroke="none">
<path d="M685 5123 c-248 -53 -462 -220 -575 -448 -93 -190 -85 17 -85 -2095
0 -2112 -8 -1905 85 -2095 82 -166 209 -293 375 -375 190 -93 -17 -85 2090
-85 2107 0 1900 -8 2090 85 166 82 293 209 375 375 93 190 85 -17 85 2095 0
2112 8 1905 -85 2095 -82 166 -209 293 -375 375 -190 93 22 84 -2065 87 -1610
1 -1854 0 -1915 -14z m3790 -37 c242 -63 437 -222 541 -441 85 -181 79 -16 79
-2065 0 -2043 6 -1883 -76 -2060 -81 -173 -211 -304 -384 -386 -181 -85 -17
-79 -2060 -79 -2043 0 -1879 -6 -2060 79 -173 82 -303 213 -384 386 -82 177
-76 17 -76 2060 0 2043 -6 1883 76 2060 122 260 375 437 664 463 22 2 843 3
1825 3 1689 -2 1789 -3 1855 -20z"/>
<path d="M2833 3617 c-93 -35 -167 -127 -182 -225 l-6 -47 -59 -7 c-33 -4 -63
-11 -66 -15 -4 -5 -5 -28 -2 -52 l4 -43 67 6 66 7 35 -53 c61 -92 151 -135
258 -125 73 6 127 33 176 87 53 59 69 102 70 190 1 63 -4 84 -27 132 -49 100
-143 159 -251 157 -28 0 -65 -6 -83 -12z m163 -83 c81 -39 125 -130 105 -218
-22 -94 -88 -148 -181 -148 -75 1 -144 48 -169 115 -15 39 -14 121 3 160 38
89 154 133 242 91z"/>
<path d="M1550 3583 c-130 -14 -272 -109 -328 -220 -30 -58 -52 -141 -52 -196
0 -46 -3 -52 -45 -89 -50 -44 -79 -92 -89 -150 -7 -36 -8 -37 -61 -43 -58 -8
-60 -10 -49 -65 l7 -32 57 6 56 7 33 -46 33 -46 -47 -67 -46 -67 28 -22 c15
-13 33 -23 38 -23 6 0 30 31 54 70 40 65 45 69 69 63 75 -20 165 1 221 53 34
30 40 32 77 24 69 -16 152 -11 231 14 19 6 28 -4 79 -91 32 -54 59 -100 61
-102 3 -5 81 35 96 49 5 5 -19 52 -52 106 l-62 97 40 41 c56 59 99 142 117
227 8 41 20 76 25 80 6 3 42 9 81 12 39 3 73 9 76 12 3 3 1 26 -4 53 -7 38
-13 47 -29 45 -11 -1 -50 -5 -86 -9 l-66 -6 -23 57 c-43 105 -169 217 -275
243 -52 13 -121 19 -165 15z m175 -152 c59 -26 112 -76 143 -135 23 -44 27
-63 27 -136 0 -73 -4 -92 -27 -136 -34 -64 -105 -128 -165 -148 -26 -9 -79
-16 -119 -16 l-72 0 -4 59 c-7 98 -90 193 -181 208 l-39 6 7 46 c15 97 59 172
131 222 86 59 206 71 299 30z m-374 -404 c36 -24 73 -86 67 -113 -5 -26 -64
29 -94 87 -27 55 -22 59 27 26z m-148 -46 c22 -63 82 -139 135 -171 23 -14 40
-29 39 -34 -2 -5 -19 -17 -37 -28 -120 -64 -252 46 -226 186 6 33 49 96 65 96
3 0 14 -22 24 -49z"/>
<path d="M2337 3307 l-88 -10 3 -51 3 -51 75 3 c41 2 91 7 110 11 33 6 35 9
32 41 -5 54 -12 70 -30 68 -9 0 -57 -6 -105 -11z"/>
<path d="M380 3053 c-66 -23 -124 -75 -157 -141 -23 -47 -28 -70 -28 -132 1
-93 27 -152 92 -210 158 -138 417 -51 451 151 7 41 10 44 42 47 88 6 100 11
100 42 0 57 -6 62 -79 54 l-66 -6 -14 38 c-7 21 -34 59 -58 86 -75 79 -182
107 -283 71z m141 -75 c83 -28 129 -95 129 -188 0 -168 -196 -250 -310 -131
-34 35 -60 96 -60 137 0 71 49 145 115 175 47 22 79 23 126 7z"/>
<path d="M4526 2934 c-21 -21 -20 -47 2 -67 25 -23 48 -21 66 5 20 29 20 34
-4 58 -24 24 -43 25 -64 4z"/>
<path d="M2332 2908 c-8 -8 -12 -65 -12 -190 0 -167 1 -178 20 -188 14 -8 26
-8 40 0 17 9 20 21 20 70 l0 60 43 0 c55 0 67 -13 67 -72 0 -37 4 -50 19 -58
25 -13 27 -13 45 6 21 20 21 112 1 141 -13 19 -13 25 0 57 28 67 12 134 -40
166 -25 16 -49 20 -112 20 -48 0 -84 -5 -91 -12z m156 -74 c26 -18 29 -56 6
-78 -9 -9 -32 -16 -55 -16 l-39 0 0 55 0 55 33 0 c18 0 43 -7 55 -16z"/>
<path d="M3512 2908 c-9 -9 -12 -60 -12 -183 0 -215 -7 -205 148 -205 102 0
112 2 126 22 11 15 12 26 5 40 -8 15 -23 18 -104 18 l-94 0 -3 158 -3 157 -25
3 c-14 2 -31 -3 -38 -10z"/>
<path d="M2735 2820 c-75 -24 -126 -113 -106 -187 15 -53 36 -80 83 -104 101
-51 229 27 228 138 -1 101 -110 182 -205 153z m108 -101 c40 -49 1 -129 -63
-129 -39 0 -80 39 -80 75 0 16 12 39 30 57 26 25 36 29 63 24 18 -3 40 -16 50
-27z"/>
<path d="M3077 2816 c-67 -24 -107 -80 -107 -150 0 -109 122 -189 213 -141 23
12 32 12 48 2 31 -18 59 21 59 82 -1 113 -45 190 -120 211 -44 12 -46 12 -93
-4z m96 -86 c54 -43 38 -123 -28 -136 -88 -16 -133 103 -55 143 35 18 53 16
83 -7z"/>
<path d="M3894 2811 c-64 -29 -94 -76 -94 -144 0 -51 4 -61 36 -97 102 -113
274 -48 274 103 0 57 -32 105 -90 135 -53 27 -73 27 -126 3z m110 -82 c37 -29
37 -89 0 -118 -15 -12 -37 -21 -49 -21 -12 0 -34 9 -49 21 -37 29 -37 89 0
118 15 12 37 21 49 21 12 0 34 -9 49 -21z"/>
<path d="M4245 2816 c-43 -20 -85 -68 -95 -110 -25 -111 84 -220 187 -188 45
14 51 10 24 -17 -31 -31 -91 -28 -130 5 -17 14 -39 24 -48 22 -27 -5 -28 -46
-1 -75 72 -79 204 -67 255 23 20 35 23 53 23 175 0 146 -7 167 -51 156 -11 -3
-36 1 -54 9 -42 17 -71 17 -110 0z m110 -91 c47 -46 23 -118 -42 -131 -27 -5
-37 -1 -63 24 -38 38 -38 66 -1 103 36 36 73 37 106 4z"/>
<path d="M4740 2808 c-61 -31 -90 -77 -90 -141 0 -148 196 -213 276 -92 29 45
-18 74 -59 38 -27 -26 -104 -24 -123 1 -24 34 -18 91 12 115 35 27 63 26 103
-3 35 -26 56 -25 71 4 18 34 -37 81 -110 95 -26 4 -47 0 -80 -17z"/>
<path d="M4527 2803 c-13 -12 -8 -258 5 -271 16 -16 33 -15 52 4 13 12 16 39
16 133 0 78 -4 121 -12 129 -13 13 -50 16 -61 5z"/>
<path d="M1957 2524 c-24 -16 -36 -31 -33 -40 3 -8 28 -48 56 -90 50 -73 52
-75 73 -60 12 9 32 21 45 28 12 6 22 16 22 22 0 17 -102 166 -114 166 -6 0
-28 -12 -49 -26z"/>
<path d="M956 2473 l-38 -57 28 -23 c16 -13 32 -23 36 -23 9 0 78 98 78 111 0
13 -41 48 -55 48 -5 0 -27 -25 -49 -56z"/>
<path d="M866 2335 c-24 -31 -30 -34 -48 -24 -38 20 -124 6 -166 -28 -55 -44
-77 -88 -77 -153 0 -71 28 -125 84 -165 36 -26 52 -30 105 -30 53 0 69 5 104
29 77 53 105 166 62 250 -20 41 -19 47 13 83 l19 22 -28 25 c-16 14 -32 26
-35 26 -4 0 -19 -16 -33 -35z m-38 -95 c34 -21 62 -71 62 -111 0 -59 -60 -119
-120 -119 -37 0 -91 32 -111 64 -21 34 -25 96 -8 127 16 30 69 59 109 59 19 0
50 -9 68 -20z"/>
<path d="M2102 2306 c-18 -13 -35 -26 -38 -28 -2 -3 22 -45 55 -93 l60 -88
-31 -36 c-17 -19 -45 -65 -62 -101 -29 -60 -31 -73 -31 -170 0 -100 2 -109 34
-175 103 -210 344 -292 550 -188 242 122 295 450 105 653 -109 116 -293 157
-438 96 l-36 -15 -55 84 c-30 47 -60 85 -67 85 -7 -1 -28 -11 -46 -24z m449
-233 c78 -25 152 -101 175 -178 39 -135 -21 -273 -149 -342 -47 -26 -198 -25
-251 1 -96 48 -150 138 -150 251 0 86 31 154 97 211 79 69 178 89 278 57z"/>
</g>
</svg>
